# xmcd
#
# Track frame offsets:
#	150
#	4121
#	15890
#	30225
#	43265
#	54115
#	67944
#	84585
#	100242
#	115484
#	129232
#	143518
#	158485
#
# Disc length: 2255 seconds
# Revision: 0
# Processed by: cddbd v1.5.2PL0 Copyright (c) Steve Scherf et al.
# Submitted via: dBpowerAMP V12.0
#
DISCID=8c08cd0d
DTITLE=Various Artist - Greetings From Austin
DYEAR=2017
DGENRE=Country
TTITLE0=Intro
TTITLE1=The Don Diego Trio - Rolling Wheel
TTITLE2=The Don Diego Trio - Loves The Rain
TTITLE3=The Don Diego Trio - I Didn't Walk The Line
TTITLE4=Kristyn Harris - My Window Faces The South
TTITLE5=The Don Diego Trio - Suspicious
TTITLE6=Mario Monterosso - Waitin' For A Beer
TTITLE7=The Don Diego Trio - Truck Drivin' Daddy
TTITLE8=The Don Diego Trio - Monday
TTITLE9=Teri Joyce - Austin
TTITLE10=The Don Diego Trio - Daddy's On A Freight Train
TTITLE11=The Don Diego Trio - Django With Twango
TTITLE12=The Don Diego Trio - There's A Little Bit Of Everything In Texas
EXTD=
EXTT0=
EXTT1=
EXTT2=
EXTT3=
EXTT4=
EXTT5=
EXTT6=
EXTT7=
EXTT8=
EXTT9=
EXTT10=
EXTT11=
EXTT12=
PLAYORDER=
